<svg width="201" height="57" viewBox="0 0 201 57" fill="none" xmlns="http://www.w3.org/2000/svg">
<path d="M0 0H108V57H0V0Z" fill="#393939"/>
<path d="M6.11612 42V13.6364H16.5032C18.516 13.6364 20.1825 13.9688 21.5028 14.6335C22.8232 15.2891 23.8111 16.18 24.4666 17.3065C25.1222 18.4237 25.4499 19.684 25.4499 21.0874C25.4499 22.2692 25.233 23.2663 24.799 24.0788C24.3651 24.8821 23.7834 25.5284 23.054 26.0178C22.3338 26.4979 21.5398 26.8487 20.6719 27.0703V27.3473C21.6136 27.3935 22.5323 27.6982 23.4279 28.2614C24.3327 28.8153 25.0806 29.6048 25.6715 30.6296C26.2624 31.6545 26.5579 32.9009 26.5579 34.369C26.5579 35.8185 26.2163 37.1204 25.533 38.2745C24.859 39.4194 23.8157 40.3288 22.4031 41.0028C20.9904 41.6676 19.1854 42 16.9879 42H6.11612ZM10.3956 38.3299H16.5724C18.6222 38.3299 20.0902 37.9329 20.9766 37.1389C21.8629 36.3448 22.3061 35.3523 22.3061 34.1612C22.3061 33.2656 22.0799 32.4439 21.6275 31.696C21.1751 30.9482 20.5288 30.3526 19.6886 29.9094C18.8576 29.4663 17.8697 29.2447 16.7248 29.2447H10.3956V38.3299ZM10.3956 25.907H16.1293C17.0895 25.907 17.9528 25.7223 18.7191 25.353C19.4947 24.9837 20.1087 24.4666 20.5611 23.8018C21.0227 23.1278 21.2535 22.3338 21.2535 21.4197C21.2535 20.2472 20.8427 19.2639 20.021 18.4698C19.1992 17.6758 17.9389 17.2788 16.2401 17.2788H10.3956V25.907Z" fill="#393939"/>
<path d="M31.8846 42H27.342L37.5491 13.6364H42.4933L52.7003 42H48.1577L40.1389 18.7884H39.9173L31.8846 42ZM32.6464 30.8928H47.3822V34.4936H32.6464V30.8928Z" fill="#393939"/>
<path d="M78.2092 22.8601H73.8882C73.722 21.9368 73.4127 21.1243 72.9603 20.4226C72.5079 19.7209 71.9539 19.1254 71.2983 18.636C70.6428 18.1467 69.9088 17.7773 69.0963 17.5281C68.293 17.2788 67.439 17.1541 66.5341 17.1541C64.8999 17.1541 63.4365 17.565 62.1439 18.3867C60.8605 19.2085 59.8449 20.4134 59.097 22.0014C58.3583 23.5895 57.989 25.5284 57.989 27.8182C57.989 30.1264 58.3583 32.0746 59.097 33.6626C59.8449 35.2507 60.8651 36.451 62.1577 37.2635C63.4503 38.076 64.9045 38.4822 66.5203 38.4822C67.4159 38.4822 68.2653 38.3622 69.0686 38.1222C69.8811 37.8729 70.6151 37.5082 71.2706 37.0281C71.9262 36.5479 72.4801 35.9617 72.9326 35.2692C73.3942 34.5675 73.7127 33.7642 73.8882 32.8594L78.2092 32.8732C77.9784 34.2674 77.5306 35.5508 76.8658 36.7234C76.2103 37.8867 75.3655 38.8931 74.3314 39.7425C73.3065 40.5827 72.1339 41.2337 70.8136 41.6953C69.4933 42.157 68.0529 42.3878 66.4926 42.3878C64.0366 42.3878 61.8484 41.8061 59.9279 40.6428C58.0075 39.4702 56.4933 37.7944 55.3853 35.6154C54.2866 33.4364 53.7373 30.8374 53.7373 27.8182C53.7373 24.7898 54.2912 22.1907 55.3992 20.021C56.5071 17.842 58.0213 16.1708 59.9418 15.0075C61.8622 13.8349 64.0458 13.2486 66.4926 13.2486C67.9976 13.2486 69.401 13.4656 70.7028 13.8995C72.0139 14.3242 73.1911 14.9521 74.2344 15.783C75.2777 16.6048 76.141 17.6112 76.8243 18.8022C77.5075 19.984 77.9691 21.3366 78.2092 22.8601Z" fill="#393939"/>
<path d="M81.77 42V13.6364H86.0495V27.1811H86.3957L98.2924 13.6364H103.68L92.2402 26.4055L103.721 42H98.5694L89.4011 29.3278L86.0495 33.1779V42H81.77Z" fill="#393939"/>
<path d="M119.053 42H111.187V13.6364H119.663C122.322 13.6364 124.598 14.1996 126.49 15.326C128.383 16.4524 129.833 18.0682 130.839 20.1733C131.855 22.2692 132.358 24.7852 132.349 27.7212C132.339 30.7219 131.813 33.2887 130.77 35.4215C129.727 37.5451 128.217 39.1747 126.241 40.3104C124.265 41.4368 121.869 42 119.053 42ZM112.918 40.3935H118.984C121.514 40.3935 123.647 39.8903 125.382 38.8839C127.118 37.8683 128.429 36.4141 129.316 34.5213C130.211 32.6286 130.654 30.3619 130.645 27.7212C130.645 25.1175 130.216 22.8878 129.357 21.032C128.499 19.1669 127.247 17.7358 125.604 16.7386C123.97 15.7415 121.966 15.2429 119.593 15.2429H112.918V40.3935Z" fill="#393939"/>
<path d="M135.789 42V13.6364H144.528C146.319 13.6364 147.861 13.9872 149.153 14.6889C150.446 15.3906 151.439 16.3647 152.131 17.6112C152.824 18.8484 153.17 20.2887 153.17 21.9322C153.17 23.5572 152.824 24.9883 152.131 26.2255C151.439 27.4535 150.446 28.4137 149.153 29.1062C147.87 29.7987 146.333 30.1449 144.542 30.1449H136.717V28.5245H144.5C145.959 28.5245 147.205 28.2521 148.239 27.7074C149.273 27.1626 150.068 26.4009 150.622 25.4222C151.175 24.4343 151.452 23.271 151.452 21.9322C151.452 20.5842 151.175 19.4116 150.622 18.4144C150.068 17.408 149.269 16.6278 148.226 16.0739C147.191 15.5199 145.945 15.2429 144.486 15.2429H137.52V42H135.789ZM147.436 29.1477L154.416 42H152.422L145.483 29.1477H147.436Z" fill="#393939"/>
<path d="M179.723 27.8182C179.723 30.745 179.216 33.3026 178.2 35.4908C177.184 37.6697 175.772 39.364 173.962 40.5735C172.162 41.783 170.084 42.3878 167.73 42.3878C165.366 42.3878 163.279 41.783 161.47 40.5735C159.669 39.3548 158.261 37.6559 157.246 35.4769C156.23 33.2887 155.722 30.7358 155.722 27.8182C155.722 24.8913 156.23 22.3384 157.246 20.1594C158.271 17.9805 159.683 16.2862 161.484 15.0767C163.284 13.858 165.366 13.2486 167.73 13.2486C170.084 13.2486 172.162 13.8533 173.962 15.0629C175.772 16.2724 177.184 17.9712 178.2 20.1594C179.216 22.3384 179.723 24.8913 179.723 27.8182ZM178.034 27.8182C178.034 25.1868 177.591 22.9063 176.704 20.9766C175.827 19.0469 174.613 17.5558 173.062 16.5032C171.511 15.4414 169.733 14.9105 167.73 14.9105C165.726 14.9105 163.949 15.4368 162.398 16.4893C160.847 17.5327 159.628 19.0238 158.741 20.9627C157.864 22.8924 157.426 25.1776 157.426 27.8182C157.426 30.4311 157.86 32.707 158.728 34.646C159.605 36.5756 160.819 38.0714 162.37 39.1332C163.921 40.195 165.708 40.7259 167.73 40.7259C169.733 40.7259 171.511 40.1996 173.062 39.147C174.613 38.0852 175.827 36.5895 176.704 34.6598C177.591 32.7301 178.034 30.4496 178.034 27.8182Z" fill="#393939"/>
<path d="M183.564 42V13.6364H192.303C194.103 13.6364 195.645 14.0057 196.928 14.7443C198.221 15.483 199.214 16.494 199.906 17.7773C200.599 19.0607 200.945 20.5241 200.945 22.1676C200.945 23.7926 200.599 25.2468 199.906 26.5302C199.214 27.8136 198.221 28.8292 196.928 29.5771C195.645 30.3157 194.108 30.685 192.317 30.685H184.783V29.0785H192.275C193.734 29.0785 194.98 28.783 196.014 28.1921C197.048 27.592 197.843 26.7749 198.397 25.7408C198.95 24.6974 199.227 23.5064 199.227 22.1676C199.227 20.8196 198.95 19.6239 198.397 18.5806C197.843 17.5373 197.044 16.7202 196.001 16.1293C194.966 15.5384 193.72 15.2429 192.261 15.2429H185.295V42H183.564Z" fill="#393939"/>
<path d="M6.11612 42V13.6364H16.5032C18.516 13.6364 20.1825 13.9688 21.5028 14.6335C22.8232 15.2891 23.8111 16.18 24.4666 17.3065C25.1222 18.4237 25.4499 19.684 25.4499 21.0874C25.4499 22.2692 25.233 23.2663 24.799 24.0788C24.3651 24.8821 23.7834 25.5284 23.054 26.0178C22.3338 26.4979 21.5398 26.8487 20.6719 27.0703V27.3473C21.6136 27.3935 22.5323 27.6982 23.4279 28.2614C24.3327 28.8153 25.0806 29.6048 25.6715 30.6296C26.2624 31.6545 26.5579 32.9009 26.5579 34.369C26.5579 35.8185 26.2163 37.1204 25.533 38.2745C24.859 39.4194 23.8157 40.3288 22.4031 41.0028C20.9904 41.6676 19.1854 42 16.9879 42H6.11612ZM10.3956 38.3299H16.5724C18.6222 38.3299 20.0902 37.9329 20.9766 37.1389C21.8629 36.3448 22.3061 35.3523 22.3061 34.1612C22.3061 33.2656 22.0799 32.4439 21.6275 31.696C21.1751 30.9482 20.5288 30.3526 19.6886 29.9094C18.8576 29.4663 17.8697 29.2447 16.7248 29.2447H10.3956V38.3299ZM10.3956 25.907H16.1293C17.0895 25.907 17.9528 25.7223 18.7191 25.353C19.4947 24.9837 20.1087 24.4666 20.5611 23.8018C21.0227 23.1278 21.2535 22.3338 21.2535 21.4197C21.2535 20.2472 20.8427 19.2639 20.021 18.4698C19.1992 17.6758 17.9389 17.2788 16.2401 17.2788H10.3956V25.907Z" fill="white"/>
<path d="M31.8846 42H27.342L37.5491 13.6364H42.4933L52.7003 42H48.1577L40.1389 18.7884H39.9173L31.8846 42ZM32.6464 30.8928H47.3822V34.4936H32.6464V30.8928Z" fill="white"/>
<path d="M78.2092 22.8601H73.8882C73.722 21.9368 73.4127 21.1243 72.9603 20.4226C72.5079 19.7209 71.9539 19.1254 71.2983 18.636C70.6428 18.1467 69.9088 17.7773 69.0963 17.5281C68.293 17.2788 67.439 17.1541 66.5341 17.1541C64.8999 17.1541 63.4365 17.565 62.1439 18.3867C60.8605 19.2085 59.8449 20.4134 59.097 22.0014C58.3583 23.5895 57.989 25.5284 57.989 27.8182C57.989 30.1264 58.3583 32.0746 59.097 33.6626C59.8449 35.2507 60.8651 36.451 62.1577 37.2635C63.4503 38.076 64.9045 38.4822 66.5203 38.4822C67.4159 38.4822 68.2653 38.3622 69.0686 38.1222C69.8811 37.8729 70.6151 37.5082 71.2706 37.0281C71.9262 36.5479 72.4801 35.9617 72.9326 35.2692C73.3942 34.5675 73.7127 33.7642 73.8882 32.8594L78.2092 32.8732C77.9784 34.2674 77.5306 35.5508 76.8658 36.7234C76.2103 37.8867 75.3655 38.8931 74.3314 39.7425C73.3065 40.5827 72.1339 41.2337 70.8136 41.6953C69.4933 42.157 68.0529 42.3878 66.4926 42.3878C64.0366 42.3878 61.8484 41.8061 59.9279 40.6428C58.0075 39.4702 56.4933 37.7944 55.3853 35.6154C54.2866 33.4364 53.7373 30.8374 53.7373 27.8182C53.7373 24.7898 54.2912 22.1907 55.3992 20.021C56.5071 17.842 58.0213 16.1708 59.9418 15.0075C61.8622 13.8349 64.0458 13.2486 66.4926 13.2486C67.9976 13.2486 69.401 13.4656 70.7028 13.8995C72.0139 14.3242 73.1911 14.9521 74.2344 15.783C75.2777 16.6048 76.141 17.6112 76.8243 18.8022C77.5075 19.984 77.9691 21.3366 78.2092 22.8601Z" fill="white"/>
<path d="M81.77 42V13.6364H86.0495V27.1811H86.3957L98.2924 13.6364H103.68L92.2402 26.4055L103.721 42H98.5694L89.4011 29.3278L86.0495 33.1779V42H81.77Z" fill="white"/>
</svg>
