<svg width="395" height="245" viewBox="0 0 395 245" fill="none" xmlns="http://www.w3.org/2000/svg">
<rect x="112.298" y="27.7054" width="75.7578" height="102" fill="#B9BAD5"/>
<rect x="203.208" y="27.7054" width="75.7578" height="102" fill="#FBB563"/>
<path d="M230.014 141.705L112.007 244.762L112.007 141.705L230.014 141.705Z" fill="#857B98"/>
<path d="M230.014 141.705L112.007 244.762L112.007 141.705L230.014 141.705Z" fill="#857B98"/>
<path d="M161.249 141.705L279.257 244.762L279.257 141.705L161.249 141.705Z" fill="#857B98"/>
<path d="M161.249 141.705L279.257 244.762L279.257 141.705L161.249 141.705Z" fill="#857B98"/>
<path fill-rule="evenodd" clip-rule="evenodd" d="M285 190C293.837 190 301 197.163 301 206C301 214.837 293.837 222 285 222C276.163 222 269 214.837 269 206C269 197.163 276.163 190 285 190ZM285 191.79C292.848 191.79 299.21 198.152 299.21 206C299.21 213.848 292.848 220.21 285 220.21C277.152 220.21 270.79 213.848 270.79 206C270.79 198.152 277.152 191.79 285 191.79Z" fill="#E8E7E5"/>
<path fill-rule="evenodd" clip-rule="evenodd" d="M305.007 4.70537C312.739 4.70537 319.007 10.9734 319.007 18.7054C319.007 26.4374 312.739 32.7054 305.007 32.7054C297.275 32.7054 291.007 26.4374 291.007 18.7054C291.007 10.9734 297.275 4.70537 305.007 4.70537ZM305.007 6.2718C311.874 6.2718 317.44 11.8385 317.44 18.7054C317.44 25.5722 311.874 31.1389 305.007 31.1389C298.14 31.1389 292.573 25.5722 292.573 18.7054C292.573 11.8385 298.14 6.2718 305.007 6.2718Z" fill="#E8E7E5"/>
<path fill-rule="evenodd" clip-rule="evenodd" d="M135.003 16C141.08 16 146.007 20.9264 146.007 27.0034C146.007 33.0804 141.08 38.0068 135.003 38.0068C128.926 38.0068 124 33.0804 124 27.0034C124 20.9264 128.926 16 135.003 16ZM135.003 17.2312C140.4 17.2312 144.776 21.6063 144.776 27.0034C144.776 32.4005 140.4 36.7757 135.003 36.7757C129.606 36.7757 125.231 32.4005 125.231 27.0034C125.231 21.6063 129.606 17.2312 135.003 17.2312Z" fill="#E8E7E5"/>
<path fill-rule="evenodd" clip-rule="evenodd" d="M382.007 197.705C388.634 197.705 394.007 203.078 394.007 209.705C394.007 216.333 388.634 221.705 382.007 221.705C375.379 221.705 370.007 216.333 370.007 209.705C370.007 203.078 375.379 197.705 382.007 197.705ZM382.007 199.048C387.893 199.048 392.664 203.819 392.664 209.705C392.664 215.591 387.893 220.363 382.007 220.363C376.121 220.363 371.349 215.591 371.349 209.705C371.349 203.819 376.121 199.048 382.007 199.048Z" fill="#E8E7E5"/>
<path fill-rule="evenodd" clip-rule="evenodd" d="M355.71 73C366.043 73 374.42 81.3767 374.42 91.7098C374.42 102.043 366.043 110.42 355.71 110.42C345.377 110.42 337 102.043 337 91.7098C337 81.3767 345.377 73 355.71 73ZM355.434 76.1858C364.16 76.1858 371.234 83.2598 371.234 91.986C371.234 100.712 364.16 107.786 355.434 107.786C346.707 107.786 339.633 100.712 339.633 91.986C339.633 83.2598 346.707 76.1858 355.434 76.1858Z" fill="#E8E7E5"/>
<path fill-rule="evenodd" clip-rule="evenodd" d="M58.7098 166C71.8043 166 82.4196 176.615 82.4196 189.71C82.4196 202.804 71.8043 213.42 58.7098 213.42C45.6152 213.42 35 202.804 35 189.71C35 176.615 45.6152 166 58.7098 166ZM58.3597 170.037C69.4179 170.037 78.3824 179.002 78.3824 190.06C78.3824 201.118 69.4179 210.082 58.3597 210.082C47.3015 210.082 38.3371 201.118 38.3371 190.06C38.3371 179.002 47.3015 170.037 58.3597 170.037Z" fill="#E8E7E5"/>
<path fill-rule="evenodd" clip-rule="evenodd" d="M42.7098 35C48.0724 35 52.4196 39.3472 52.4196 44.7098C52.4196 50.0724 48.0724 54.4196 42.7098 54.4196C37.3472 54.4196 33 50.0724 33 44.7098C33 39.3472 37.3472 35 42.7098 35ZM42.5664 36.6533C47.0951 36.6533 50.7662 40.3245 50.7662 44.8531C50.7662 49.3818 47.0951 53.0529 42.5664 53.0529C38.0378 53.0529 34.3666 49.3818 34.3666 44.8531C34.3666 40.3245 38.0378 36.6533 42.5664 36.6533Z" fill="#E8E7E5"/>
<path fill-rule="evenodd" clip-rule="evenodd" d="M101 92C109.837 92 117 99.1635 117 108C117 116.837 109.837 124 101 124C92.1635 124 85 116.837 85 108C85 99.1635 92.1635 92 101 92ZM101 93.7902C108.848 93.7902 115.21 100.152 115.21 108C115.21 115.848 108.848 122.21 101 122.21C93.1522 122.21 86.7902 115.848 86.7902 108C86.7902 100.152 93.1522 93.7902 101 93.7902Z" fill="#E8E7E5"/>
<path d="M64.6386 171.743L56.9841 149.396L77.5246 161.06L64.6386 171.743Z" stroke="#E8E7E5"/>
<path d="M67.4092 169.393L64.3065 145.977L82.1471 161.458L67.4092 169.393Z" stroke="#E8E7E5"/>
<path d="M330.885 208.802L341.887 216.732L328.392 218.084L330.885 208.802Z" stroke="#E8E7E5"/>
<path d="M330.269 210.958L339.494 220.9L325.997 219.567L330.269 210.958Z" stroke="#E8E7E5"/>
<path d="M207.127 14.0946L230.334 9.69027L215.872 28.3668L207.127 14.0946Z" stroke="#E8E7E5"/>
<path d="M209.059 17.1707L232.679 17.424L214.822 32.8859L209.059 17.1707Z" stroke="#E8E7E5"/>
<path d="M329.904 135.407L329.206 159.018L314.083 140.872L329.904 135.407Z" stroke="#E8E7E5"/>
<path d="M326.484 136.632L321.148 159.642L309.897 138.873L326.484 136.632Z" stroke="#E8E7E5"/>
<path d="M42.1516 82.8889L19.5611 100.559L24.7707 72.3558L42.1516 82.8889Z" stroke="#E8E7E5"/>
<path d="M38.4059 80.711L12.7774 93.5852L23.4404 66.9606L38.4059 80.711Z" stroke="#E8E7E5"/>
<path d="M364.138 78.002L354.931 68.5061L368.119 69.5171L364.138 78.002Z" stroke="#E8E7E5"/>
<path d="M365.104 76.0304L357.949 64.907L370.679 68.4959L365.104 76.0304Z" stroke="#E8E7E5"/>
<path d="M172.505 226.743L169.568 206.942L184.889 219.826L172.505 226.743Z" stroke="#E8E7E5"/>
<path d="M175.234 225.203L176.256 205.211L188.738 220.86L175.234 225.203Z" stroke="#E8E7E5"/>
</svg>
