<svg width="283" height="265" viewBox="0 0 283 265" fill="none" xmlns="http://www.w3.org/2000/svg">
<g filter="url(#filter0_d_101_77)">
<rect width="182" height="226" transform="matrix(1 0 0 -1 41 244)" fill="white"/>
</g>
<path d="M53.1174 77.9089C38.1201 -8.59566 168.246 -11.9245 186.554 33.0838C207.232 83.9159 212.298 95.0993 252.244 97.0809C292.605 99.0822 290.231 194.844 228.811 181.486C159.11 166.326 153.779 254.093 111.626 259.492C61.6933 265.885 25.9226 251.883 7.87675 203.542C-15.6833 140.425 66.0779 152.668 53.1174 77.9089Z" fill="#E6E7F1"/>
<path d="M56.3624 77.0162C51.7126 48.4102 65.1709 24.0585 92.4835 13.7319C114.862 5.2724 143.137 5.15141 164.729 16.1288C191.115 29.5423 190.368 63.9558 208.886 84.7792C217.007 93.9156 228.143 97.8069 240.017 99.3699C252.695 101.038 263.128 100.312 270.227 112.607C281.252 131.707 277.094 164.07 256.556 175.388C242.502 183.131 228.219 176.365 213.411 176.372C199.963 176.375 187.418 181.035 176.933 189.344C156.503 205.537 147.603 231.671 127.884 248.276C115.814 258.442 98.6331 258.191 83.6096 257.419C65.8258 256.503 48.2646 251.196 34.79 239.211C21.0992 227.034 10.8009 208.352 7.63773 190.335C5.43071 177.755 9.36012 167.003 17.9524 157.805C34.5411 140.045 54.1914 127.763 57.3808 101.548C58.3763 93.34 57.6853 85.1487 56.3624 77.0162C55.6715 72.7652 49.1814 74.567 49.8691 78.8016C52.6295 95.7827 50.8252 112.617 40.0979 126.573C32.3767 136.622 21.7902 143.855 13.188 153.06C5.21132 161.598 0.0179491 171.738 0.230792 183.621C0.538596 200.949 9.51403 219.343 19.8517 232.868C30.4185 246.69 45.0261 256.425 61.88 260.895C78.7765 265.375 100.46 266.689 117.363 261.709C142.665 254.257 154.332 223.244 170.355 205.017C180.735 193.212 193.748 184.161 209.904 183.187C225.73 182.228 240.485 189.475 255.973 183.079C279.196 173.491 286.554 143.773 280.846 121.318C278.214 110.956 272.264 100.635 262.142 96.0738C249.405 90.3349 234.46 94.4715 221.873 86.9701C195.169 71.0583 199.655 31.1741 174.307 13.9608C134.116 -13.3274 56.1627 1.45631 49.116 55.9378C48.127 63.5961 48.6313 71.2054 49.8658 78.8049C50.56 83.0526 57.0501 81.2508 56.3624 77.0162Z" fill="#E6E7F1"/>
<path d="M216.499 25.0232C230.278 9.61171 262.362 53.1975 250.662 63.8447C232.498 80.3712 209.144 33.2473 216.499 25.0232Z" fill="#E6E7F1"/>
<path d="M218.88 27.394C229.764 16.361 256.645 50.5913 248.589 61.1371C241.366 70.5939 229.65 56.3531 226.093 50.7385C223.038 45.9152 215.016 32.5475 219.407 26.7138C222.007 23.2574 216.165 19.9089 213.591 23.3261C206.499 32.7469 217.648 51.0753 223.307 58.4622C230.183 67.4417 244.473 76.9475 253.92 65.2344C261.838 55.4179 251.432 39.3785 245.043 31.7038C238.006 23.2541 224.247 12.3781 214.119 22.6459C211.077 25.7328 215.834 30.4808 218.88 27.394Z" fill="#E6E7F1"/>
<g filter="url(#filter1_d_101_77)">
<rect width="182" height="226" transform="matrix(1 0 0 -1 41 244)" fill="white" fill-opacity="0.5" shape-rendering="crispEdges"/>
</g>
<path d="M200.768 200H63.2319C61.0494 199.997 58.957 198.821 57.4138 196.732C55.8706 194.642 55.0025 191.809 55 188.853V45.1467C55.0025 42.1914 55.8706 39.3582 57.4138 37.2685C58.957 35.1788 61.0494 34.0034 63.2319 34H200.768C202.951 34.0033 205.043 35.1788 206.586 37.2685C208.129 39.3582 208.998 42.1914 209 45.1467V188.853C208.998 191.809 208.129 194.642 206.586 196.732C205.043 198.821 202.951 199.997 200.768 200Z" fill="#E6E7F1"/>
<path d="M187.636 189H76.3644C75.2657 189.002 74.1775 188.617 73.1623 187.868C72.147 187.118 71.2245 186.019 70.4476 184.633C69.6707 183.247 69.0547 181.602 68.6347 179.79C68.2147 177.979 67.999 176.038 68 174.078V60.9222C68.0025 56.966 68.8846 53.173 70.4526 50.3756C72.0207 47.5781 74.1468 46.0045 76.3644 46H187.636C189.853 46.0045 191.979 47.5781 193.547 50.3756C195.115 53.173 195.997 56.966 196 60.9222V174.078C196.001 176.038 195.786 177.979 195.366 179.791C194.946 181.602 194.33 183.248 193.553 184.634C192.776 186.021 191.853 187.12 190.838 187.869C189.823 188.618 188.734 189.002 187.636 189ZM76.3644 46.9044C74.2812 46.9086 72.284 48.3868 70.8109 51.0148C69.3379 53.6427 68.5093 57.2058 68.5069 60.9222V174.078C68.506 175.919 68.7085 177.743 69.1031 179.444C69.4976 181.146 70.0763 182.692 70.8061 183.994C71.536 185.296 72.4026 186.328 73.3563 187.032C74.31 187.736 75.3322 188.097 76.3644 188.096H187.636C188.668 188.098 189.69 187.737 190.644 187.033C191.598 186.329 192.465 185.297 193.194 183.995C193.924 182.693 194.503 181.146 194.897 179.445C195.292 177.743 195.494 175.919 195.493 174.078V60.9222C195.491 57.2058 194.662 53.6427 193.189 51.0148C191.716 48.3868 189.719 46.9086 187.636 46.9044H76.3644Z" fill="white"/>
<defs>
<filter id="filter0_d_101_77" x="39" y="16" width="190" height="234" filterUnits="userSpaceOnUse" color-interpolation-filters="sRGB">
<feFlood flood-opacity="0" result="BackgroundImageFix"/>
<feColorMatrix in="SourceAlpha" type="matrix" values="0 0 0 0 0 0 0 0 0 0 0 0 0 0 0 0 0 0 127 0" result="hardAlpha"/>
<feOffset dx="2" dy="2"/>
<feGaussianBlur stdDeviation="2"/>
<feComposite in2="hardAlpha" operator="out"/>
<feColorMatrix type="matrix" values="0 0 0 0 0 0 0 0 0 0 0 0 0 0 0 0 0 0 0.25 0"/>
<feBlend mode="normal" in2="BackgroundImageFix" result="effect1_dropShadow_101_77"/>
<feBlend mode="normal" in="SourceGraphic" in2="effect1_dropShadow_101_77" result="shape"/>
</filter>
<filter id="filter1_d_101_77" x="39" y="16" width="190" height="234" filterUnits="userSpaceOnUse" color-interpolation-filters="sRGB">
<feFlood flood-opacity="0" result="BackgroundImageFix"/>
<feColorMatrix in="SourceAlpha" type="matrix" values="0 0 0 0 0 0 0 0 0 0 0 0 0 0 0 0 0 0 127 0" result="hardAlpha"/>
<feOffset dx="2" dy="2"/>
<feGaussianBlur stdDeviation="2"/>
<feComposite in2="hardAlpha" operator="out"/>
<feColorMatrix type="matrix" values="0 0 0 0 0 0 0 0 0 0 0 0 0 0 0 0 0 0 0.1 0"/>
<feBlend mode="normal" in2="BackgroundImageFix" result="effect1_dropShadow_101_77"/>
<feBlend mode="normal" in="SourceGraphic" in2="effect1_dropShadow_101_77" result="shape"/>
</filter>
</defs>
</svg>
