<svg width="14rem" viewBox="0 0 340 358" fill="none" xmlns="http://www.w3.org/2000/svg">
<path d="M252.706 169.706C221.464 200.948 170.81 200.948 139.569 169.706C108.327 138.464 108.327 87.8105 139.569 56.5685C170.81 25.3266 221.464 25.3266 252.706 56.5685C283.948 87.8105 283.948 138.464 252.706 169.706Z" fill="#E9AF58"/>
<circle cx="113.137" cy="186.137" r="80" transform="rotate(45 113.137 186.137)" fill="#5AB2AC"/>
<circle cx="226.137" cy="244.137" r="80" transform="rotate(45 226.137 244.137)" fill="#EC856F"/>
<g filter="url(#filter0_d_3_103)">
<rect width="182" height="226" transform="matrix(1 0 0 -1 83 298.785)" fill="white"/>
</g>
<rect x="102.379" y="91.0066" width="143" height="158" fill="#EFEFEF" stroke="#DFDFDF"/>
<circle cx="195.395" cy="170.991" r="7.484" fill="#EC856F"/>
<circle cx="173.879" cy="170.991" r="7.484" fill="#E9AF58"/>
<circle cx="152.363" cy="170.991" r="7.484" fill="#5AB2AC"/>
<defs>
<filter id="filter0_d_3_103" x="81" y="70.7845" width="190" height="234" filterUnits="userSpaceOnUse" color-interpolation-filters="sRGB">
<feFlood flood-opacity="0" result="BackgroundImageFix"/>
<feColorMatrix in="SourceAlpha" type="matrix" values="0 0 0 0 0 0 0 0 0 0 0 0 0 0 0 0 0 0 127 0" result="hardAlpha"/>
<feOffset dx="2" dy="2"/>
<feGaussianBlur stdDeviation="2"/>
<feComposite in2="hardAlpha" operator="out"/>
<feColorMatrix type="matrix" values="0 0 0 0 0 0 0 0 0 0 0 0 0 0 0 0 0 0 0.25 0"/>
<feBlend mode="normal" in2="BackgroundImageFix" result="effect1_dropShadow_3_103"/>
<feBlend mode="normal" in="SourceGraphic" in2="effect1_dropShadow_3_103" result="shape"/>
</filter>
</defs>
</svg>
