<svg width="283" height="271" viewBox="0 0 283 271" fill="none" xmlns="http://www.w3.org/2000/svg">
<path d="M52.8929 83.3047C37.8957 -3.19985 168.021 -6.52871 186.329 38.4796C207.008 89.3117 212.073 100.495 252.019 102.477C292.381 104.478 290.007 200.24 228.587 186.882C158.886 171.722 153.555 259.489 111.402 264.888C61.4689 271.281 25.6981 257.279 7.6523 208.938C-15.9078 145.821 65.8534 158.063 52.8929 83.3047Z" fill="#E6E7F1"/>
<path d="M56.1379 82.412C51.4881 53.8061 64.9464 29.4544 92.2591 19.1277C114.637 10.6682 142.912 10.5472 164.505 21.5246C190.891 34.9382 190.144 69.3516 208.661 90.175C216.782 99.3114 227.919 103.203 239.792 104.766C252.471 106.433 262.904 105.708 270.003 118.003C281.028 137.103 276.869 169.466 256.332 180.783C242.277 188.527 227.994 181.761 213.187 181.768C199.738 181.771 187.194 186.431 176.709 194.74C156.279 210.933 147.379 237.067 127.66 253.672C115.59 263.838 98.4086 263.586 83.3851 262.815C65.6013 261.899 48.0401 256.592 34.5655 244.607C20.8748 232.43 10.5764 213.748 7.41325 195.731C5.20623 183.151 9.13564 172.399 17.728 163.201C34.3166 145.441 53.9669 133.159 57.1563 106.944C58.1518 98.7359 57.4608 90.5445 56.1379 82.412C55.447 78.161 48.957 79.9628 49.6446 84.1974C52.405 101.179 50.6007 118.013 39.8735 131.969C32.1522 142.018 21.5657 149.251 12.9635 158.456C4.98683 166.994 -0.206538 177.134 0.00630489 189.017C0.314109 206.345 9.28954 224.739 19.6272 238.263C30.194 252.086 44.8016 261.821 61.6555 266.291C78.552 270.771 100.236 272.085 117.139 267.105C142.441 259.653 154.108 228.64 170.13 210.413C180.51 198.608 193.523 189.557 209.68 188.582C225.505 187.624 240.26 194.871 255.749 188.474C278.972 178.887 286.329 149.169 280.622 126.714C277.989 116.351 272.039 106.031 261.918 101.47C249.18 95.7307 234.235 99.8673 221.648 92.3659C194.944 76.4541 199.43 36.5699 174.083 19.3566C133.891 -7.93154 55.9382 6.85212 48.8915 61.3336C47.9026 68.9919 48.4068 76.6012 49.6413 84.2007C50.3355 88.4484 56.8256 86.6467 56.1379 82.412Z" fill="#E6E7F1"/>
<path d="M216.275 30.419C230.054 15.0075 262.137 58.5933 250.437 69.2405C232.274 85.767 208.92 38.6431 216.275 30.419Z" fill="#E6E7F1"/>
<path d="M218.655 32.7898C229.54 21.7568 256.42 55.9872 248.365 66.5329C241.141 75.9897 229.425 61.7489 225.869 56.1343C222.814 51.3111 214.791 37.9433 219.182 32.1096C221.782 28.6532 215.941 25.3047 213.367 28.7219C206.274 38.1428 217.424 56.4711 223.082 63.858C229.959 72.8375 244.249 82.3434 253.696 70.6302C261.613 60.8137 251.207 44.7743 244.818 37.0996C237.782 28.65 224.022 17.7739 213.894 28.0417C210.852 31.1286 215.61 35.8767 218.655 32.7898Z" fill="#E6E7F1"/>
<path d="M214.316 211.311C212.637 211.309 210.986 210.884 209.515 210.074L72.9355 135.324C70.6029 134.044 68.873 131.89 68.1252 129.336C67.3774 126.781 67.6728 124.033 68.9466 121.696L126.584 16.228C127.216 15.0711 128.07 14.05 129.097 13.2233C130.123 12.3965 131.303 11.7802 132.567 11.4096C133.832 11.0389 135.157 10.9211 136.467 11.063C137.777 11.2048 139.046 11.6035 140.202 12.2362L276.782 86.9864C279.115 88.2664 280.845 90.4201 281.592 92.975C282.34 95.5299 282.045 98.2773 280.771 100.614L223.133 206.083C222.504 207.242 221.651 208.264 220.624 209.092C219.597 209.919 218.417 210.534 217.151 210.901C216.23 211.172 215.276 211.31 214.316 211.311ZM210.341 208.564C212.275 209.623 214.551 209.869 216.667 209.249C218.783 208.629 220.566 207.193 221.624 205.257L279.262 99.7885C280.317 97.852 280.562 95.5755 279.942 93.4586C279.323 91.3417 277.889 89.5572 275.957 88.4965L139.377 13.7464C137.442 12.6876 135.167 12.4413 133.051 13.0616C130.935 13.6819 129.151 15.118 128.093 17.054L70.4558 122.522C69.4003 124.459 69.1555 126.735 69.7751 128.852C70.3948 130.969 71.8281 132.753 73.7608 133.814L210.341 208.564Z" fill="#F2F2F2"/>
<path d="M217.132 174.424C215.561 174.423 214.015 174.027 212.636 173.272L102.215 112.838C101.141 112.252 100.193 111.459 99.4251 110.505C98.6573 109.551 98.085 108.455 97.741 107.28C97.397 106.104 97.2879 104.873 97.4201 103.655C97.5523 102.437 97.9232 101.258 98.5114 100.184L132.934 37.1948C133.521 36.1204 134.314 35.1723 135.267 34.4045C136.221 33.6368 137.316 33.0644 138.49 32.7202C139.664 32.376 140.895 32.2667 142.111 32.3984C143.328 32.5302 144.506 32.9005 145.58 33.4881L256.001 93.9214C257.074 94.5088 258.022 95.3022 258.789 96.2561C259.556 97.21 260.128 98.3058 260.472 99.4809C260.816 100.656 260.925 101.887 260.793 103.105C260.662 104.322 260.292 105.502 259.705 106.576L225.282 169.565C224.486 171.034 223.309 172.26 221.874 173.115C220.44 173.971 218.802 174.423 217.132 174.424Z" fill="#F2F2F2"/>
<path d="M111.168 199C56.3814 199 11.8091 154.365 11.8091 99.5C11.8091 44.6352 56.3814 0 111.168 0C165.955 0 210.527 44.6356 210.527 99.5C210.527 154.364 165.955 199 111.168 199ZM111.168 1.67227C57.302 1.67227 41.0323 71.0714 13.479 99.5C-24.0371 138.208 57.302 197.328 111.168 197.328C165.034 197.328 208.857 153.442 208.857 99.5C208.857 45.5579 165.034 1.67227 111.168 1.67227Z" fill="#FBB563"/>
<path d="M153.276 54C208.063 54 252.635 98.6352 252.635 153.5C252.635 208.365 208.063 253 153.276 253C98.4897 253 53.9174 208.364 53.9174 153.5C53.9174 98.6356 98.4897 54 153.276 54ZM153.276 251.328C207.142 251.328 223.412 181.929 250.965 153.5C288.482 114.792 207.142 55.6723 153.276 55.6723C99.4103 55.6723 55.5873 99.5579 55.5873 153.5C55.5873 207.442 99.4103 251.328 153.276 251.328Z" fill="#FBB563"/>
<g filter="url(#filter0_d_106_137)">
<rect width="182" height="226" transform="matrix(1 0 0 -1 48 232)" fill="white"/>
</g>
<path d="M207.768 193H70.2319C68.0494 192.997 65.957 191.821 64.4138 189.732C62.8706 187.642 62.0025 184.809 62 181.853V38.1467C62.0025 35.1914 62.8706 32.3582 64.4138 30.2685C65.957 28.1788 68.0494 27.0034 70.2319 27H207.768C209.951 27.0033 212.043 28.1788 213.586 30.2685C215.129 32.3582 215.998 35.1914 216 38.1467V181.853C215.998 184.809 215.129 187.642 213.586 189.732C212.043 191.821 209.951 192.997 207.768 193Z" fill="#E6E7F1"/>
<path d="M208.093 193H69.907C67.5455 192.996 65.2816 191.736 63.6117 189.495C61.9419 187.254 61.0027 184.216 61 181.047V37.953C61.0027 34.7839 61.9419 31.7457 63.6117 29.5049C65.2816 27.264 67.5455 26.0036 69.907 26H208.093C210.454 26.0036 212.718 27.264 214.388 29.5049C216.058 31.7457 216.997 34.7839 217 37.953V181.047C216.997 184.216 216.058 187.254 214.388 189.495C212.718 191.736 210.454 192.996 208.093 193ZM69.907 28.0491C67.9504 28.052 66.0745 29.0964 64.6909 30.9531C63.3074 32.8098 62.5291 35.3272 62.5269 37.953V181.047C62.5291 183.673 63.3074 186.19 64.6909 188.047C66.0745 189.904 67.9504 190.948 69.907 190.951H208.093C210.05 190.948 211.925 189.904 213.309 188.047C214.693 186.19 215.471 183.673 215.473 181.047V37.953C215.471 35.3272 214.693 32.8098 213.309 30.9531C211.925 29.0964 210.05 28.052 208.093 28.0491H69.907Z" fill="#E6E6E6"/>
<path d="M194.636 184H83.3644C82.2657 184.002 81.1775 183.617 80.1623 182.868C79.147 182.118 78.2245 181.019 77.4476 179.633C76.6707 178.247 76.0547 176.602 75.6347 174.79C75.2147 172.979 74.999 171.038 75 169.078V55.9222C75.0025 51.966 75.8846 48.173 77.4526 45.3756C79.0207 42.5781 81.1468 41.0045 83.3644 41H194.636C196.853 41.0045 198.979 42.5781 200.547 45.3756C202.115 48.173 202.997 51.966 203 55.9222V169.078C203.001 171.038 202.786 172.979 202.366 174.791C201.946 176.602 201.33 178.248 200.553 179.634C199.776 181.021 198.853 182.12 197.838 182.869C196.823 183.618 195.734 184.002 194.636 184ZM83.3644 41.9044C81.2812 41.9086 79.284 43.3868 77.8109 46.0148C76.3379 48.6427 75.5093 52.2058 75.5069 55.9222V169.078C75.506 170.919 75.7085 172.743 76.1031 174.444C76.4976 176.146 77.0763 177.692 77.8061 178.994C78.536 180.296 79.4026 181.328 80.3563 182.032C81.31 182.736 82.3322 183.097 83.3644 183.096H194.636C195.668 183.098 196.69 182.737 197.644 182.033C198.598 181.329 199.465 180.297 200.194 178.995C200.924 177.693 201.503 176.146 201.897 174.445C202.292 172.743 202.494 170.919 202.493 169.078V55.9222C202.491 52.2058 201.662 48.6427 200.189 46.0148C198.716 43.3868 196.719 41.9086 194.636 41.9044H83.3644Z" fill="white"/>
<rect x="91" y="54" width="76" height="114" fill="#857B98"/>
<rect x="129" y="67" width="55" height="96" fill="#857B98"/>
<defs>
<filter id="filter0_d_106_137" x="46" y="4" width="190" height="234" filterUnits="userSpaceOnUse" color-interpolation-filters="sRGB">
<feFlood flood-opacity="0" result="BackgroundImageFix"/>
<feColorMatrix in="SourceAlpha" type="matrix" values="0 0 0 0 0 0 0 0 0 0 0 0 0 0 0 0 0 0 127 0" result="hardAlpha"/>
<feOffset dx="2" dy="2"/>
<feGaussianBlur stdDeviation="2"/>
<feComposite in2="hardAlpha" operator="out"/>
<feColorMatrix type="matrix" values="0 0 0 0 0 0 0 0 0 0 0 0 0 0 0 0 0 0 0.25 0"/>
<feBlend mode="normal" in2="BackgroundImageFix" result="effect1_dropShadow_106_137"/>
<feBlend mode="normal" in="SourceGraphic" in2="effect1_dropShadow_106_137" result="shape"/>
</filter>
</defs>
</svg>
