<svg width="381" height="375" viewBox="0 0 381 375" fill="none" xmlns="http://www.w3.org/2000/svg">
<path d="M235.769 280.62C202.37 361.814 90.4791 295.3 98.9668 247.457C108.551 193.424 110.223 181.261 77.4753 158.301C44.386 135.102 97.4172 55.3298 142.276 99.3586C193.183 149.324 244.456 77.8929 283.004 95.7834C328.666 116.978 351.476 147.886 340.991 198.408C327.299 264.374 264.633 210.451 235.769 280.62Z" fill="#E6E7F1"/>
<path d="M232.547 279.646C221.241 306.331 196.877 319.768 168.262 313.955C144.818 309.19 120.825 294.228 108.402 273.434C93.2199 248.024 112.187 219.3 107.612 191.812C105.608 179.754 98.2568 170.527 89.0419 162.878C79.201 154.712 69.9858 149.768 70.5291 135.58C71.3757 113.543 92.1381 88.3716 115.548 89.7369C131.567 90.6722 140.049 104.008 152.583 111.892C163.966 119.054 177.064 121.795 190.364 120.35C216.28 117.532 237.736 100.158 263.27 96.6127C278.901 94.4403 293.306 103.808 305.609 112.465C320.17 122.715 332.203 136.563 337.221 153.884C342.318 171.484 341.079 192.78 334.156 209.712C329.322 221.534 320.268 228.539 308.096 231.745C284.595 237.935 261.423 237.859 244.756 258.344C239.54 264.76 235.761 272.06 232.547 279.646C230.867 283.612 237.319 285.545 238.993 281.595C245.705 265.754 256.201 252.47 272.715 246.375C284.603 241.986 297.415 241.505 309.599 238.299C320.899 235.323 330.696 229.509 336.848 219.34C345.819 204.513 348.024 184.165 346.482 167.212C344.905 149.885 337.73 133.864 325.849 121.101C313.937 108.308 296.288 95.6422 279.331 90.8506C253.948 83.676 227.552 103.704 204.282 110.592C189.208 115.051 173.373 115.777 159.182 107.993C145.279 100.372 136.654 86.3786 120.139 83.5389C95.3786 79.2792 73.3184 100.507 66.1841 122.551C62.8908 132.723 62.4271 144.626 68.5619 153.879C76.2835 165.522 91.1344 169.984 97.7894 183.039C111.909 210.732 86.8625 242.093 99.1417 270.165C118.614 314.672 192.458 343.695 227.449 301.345C232.366 295.391 235.993 288.683 238.998 281.594C240.674 277.63 234.221 275.697 232.547 279.646Z" fill="#E6E7F1"/>
<path d="M69.3312 238.324C49.4594 244.024 45.5317 190.046 61.1053 187.269C85.2816 182.961 79.9367 235.283 69.3312 238.324Z" fill="#E6E7F1"/>
<path d="M68.5798 235.049C53.4905 238.586 48.9812 195.297 61.4167 190.665C72.5682 186.511 74.8954 204.804 74.9132 211.45C74.9288 217.16 74.5954 232.747 67.7712 235.344C63.7295 236.883 66.8889 242.829 70.8876 241.309C81.9091 237.116 82.2391 215.665 81.3866 206.399C80.3517 195.137 73.3238 179.479 59.0886 184.357C47.158 188.446 47.4185 207.563 48.7356 217.462C50.1885 228.362 56.0376 244.897 70.079 241.604C74.298 240.612 72.8015 234.059 68.5798 235.049Z" fill="#E6E7F1"/>
<path d="M260.316 264.309C258.637 264.308 256.986 263.883 255.515 263.073L118.936 188.323C116.603 187.043 114.873 184.889 114.125 182.335C113.377 179.78 113.673 177.032 114.947 174.695L172.584 69.227C173.216 68.07 174.07 67.049 175.097 66.2223C176.123 65.3955 177.303 64.7792 178.567 64.4085C179.832 64.0379 181.157 63.9201 182.467 64.0619C183.777 64.2038 185.046 64.6024 186.202 65.2352L322.782 139.985C325.115 141.265 326.845 143.419 327.593 145.974C328.34 148.529 328.045 151.276 326.771 153.613L269.133 259.082C268.504 260.241 267.651 261.263 266.624 262.09C265.597 262.918 264.417 263.533 263.151 263.9C262.23 264.171 261.276 264.309 260.316 264.309ZM256.341 261.563C258.275 262.622 260.551 262.868 262.667 262.248C264.783 261.628 266.566 260.192 267.624 258.256L325.262 152.787C326.317 150.851 326.562 148.574 325.943 146.458C325.323 144.341 323.889 142.556 321.957 141.495L185.377 66.7453C183.442 65.6866 181.167 65.4403 179.051 66.0606C176.935 66.6809 175.151 68.1169 174.093 70.0529L116.456 175.521C115.4 177.458 115.156 179.734 115.775 181.851C116.395 183.968 117.828 185.752 119.761 186.813L256.341 261.563Z" fill="#F2F2F2"/>
<path d="M263.132 227.423C261.561 227.422 260.015 227.026 258.636 226.271L148.215 165.837C147.141 165.251 146.193 164.458 145.425 163.504C144.657 162.55 144.085 161.454 143.741 160.279C143.397 159.103 143.288 157.871 143.42 156.654C143.552 155.436 143.923 154.257 144.511 153.183L178.934 90.1938C179.521 89.1194 180.314 88.1712 181.267 87.4035C182.221 86.6357 183.316 86.0634 184.49 85.7192C185.664 85.375 186.895 85.2656 188.111 85.3974C189.328 85.5291 190.506 85.8994 191.58 86.4871L302.001 146.92C303.074 147.508 304.022 148.301 304.789 149.255C305.556 150.209 306.128 151.305 306.472 152.48C306.816 153.655 306.925 154.886 306.793 156.104C306.662 157.321 306.292 158.501 305.705 159.575L271.282 222.564C270.486 224.033 269.309 225.259 267.874 226.114C266.44 226.97 264.802 227.422 263.132 227.423Z" fill="#F2F2F2"/>
<path d="M207.437 258C263.05 258 308.294 212.692 308.294 157C308.294 101.307 263.05 55.999 207.437 55.999C151.824 55.999 106.58 101.308 106.58 157C106.58 212.691 151.824 258 207.437 258ZM207.437 57.6965C262.115 57.6965 278.63 128.142 306.599 157C344.681 196.291 262.115 256.303 207.437 256.303C152.759 256.303 108.275 211.755 108.275 157C108.275 102.244 152.759 57.6965 207.437 57.6965Z" fill="#FBB563"/>
<path d="M176.587 78.1043C116.256 78.1043 67.1728 127.257 67.1728 187.674C67.1728 248.091 116.256 297.243 176.587 297.243C236.918 297.243 286.001 248.09 286.001 187.674C286.001 127.257 236.918 78.1043 176.587 78.1043ZM176.587 295.402C117.27 295.402 99.3534 218.979 69.0117 187.674C27.6989 145.049 117.27 79.9458 176.587 79.9458C235.904 79.9458 284.162 128.273 284.162 187.674C284.162 247.075 235.904 295.402 176.587 295.402Z" fill="#EC856F"/>
<g filter="url(#filter0_d_106_139)">
<rect width="111.133" height="138" transform="matrix(1 0 0 -1 71.0001 294.999)" fill="white"/>
</g>
<path d="M168.558 271.185H84.5753C83.2426 271.183 81.965 270.465 81.0227 269.189C80.0803 267.913 79.5502 266.183 79.5487 264.378V176.628C79.5502 174.824 80.0803 173.094 81.0227 171.818C81.965 170.542 83.2426 169.824 84.5753 169.822H168.558C169.89 169.824 171.168 170.542 172.11 171.818C173.053 173.094 173.583 174.824 173.584 176.628V264.378C173.583 266.183 173.053 267.913 172.11 269.189C171.168 270.465 169.89 271.183 168.558 271.185Z" fill="#E6E7F1"/>
<path d="M168.756 271.185H84.3769C82.9349 271.183 81.5525 270.413 80.5329 269.045C79.5133 267.676 78.9397 265.821 78.9381 263.886V176.51C78.9397 174.575 79.5133 172.72 80.5329 171.351C81.5525 169.983 82.9349 169.213 84.3769 169.211H168.756C170.198 169.213 171.58 169.983 172.6 171.351C173.62 172.72 174.193 174.575 174.195 176.51V263.886C174.193 265.821 173.62 267.676 172.6 269.045C171.58 270.413 170.198 271.183 168.756 271.185ZM84.3769 170.463C83.1821 170.464 82.0367 171.102 81.1919 172.236C80.347 173.37 79.8718 174.907 79.8705 176.51V263.886C79.8718 265.489 80.347 267.027 81.1919 268.16C82.0367 269.294 83.1821 269.932 84.3769 269.934H168.756C169.951 269.932 171.096 269.294 171.941 268.16C172.786 267.027 173.261 265.489 173.262 263.886V176.51C173.261 174.907 172.786 173.37 171.941 172.236C171.096 171.102 169.951 170.464 168.756 170.463H84.3769Z" fill="#E6E6E6"/>
<path d="M160.838 264H92.1624C91.4843 264.001 90.8127 263.77 90.1861 263.319C89.5595 262.868 88.9902 262.207 88.5107 261.374C88.0312 260.54 87.6509 259.551 87.3917 258.461C87.1325 257.372 86.9994 256.205 87 255.026V186.974C87.0016 184.595 87.546 182.314 88.5137 180.631C89.4815 178.949 90.7937 178.003 92.1624 178H160.838C162.206 178.003 163.518 178.949 164.486 180.631C165.454 182.314 165.998 184.595 166 186.974V255.026C166.001 256.205 165.868 257.372 165.609 258.462C165.349 259.551 164.969 260.541 164.49 261.375C164.01 262.208 163.441 262.869 162.814 263.32C162.187 263.77 161.516 264.001 160.838 264ZM92.1624 178.544C90.8767 178.546 89.644 179.435 88.7349 181.016C87.8257 182.596 87.3143 184.739 87.3129 186.974V255.026C87.3123 256.133 87.4373 257.23 87.6808 258.253C87.9243 259.276 88.2815 260.206 88.7319 260.989C89.1824 261.772 89.7172 262.393 90.3059 262.817C90.8945 263.24 91.5254 263.457 92.1624 263.456H160.838C161.475 263.457 162.106 263.24 162.694 262.817C163.283 262.394 163.818 261.773 164.268 260.99C164.719 260.207 165.076 259.277 165.32 258.253C165.563 257.23 165.688 256.133 165.687 255.026V186.974C165.686 184.739 165.174 182.596 164.265 181.016C163.356 179.435 162.123 178.546 160.838 178.544H92.1624Z" fill="white"/>
<rect x="120.46" y="194.247" width="33.5841" height="58.6195" fill="#EC856F"/>
<rect x="97.2567" y="186.309" width="46.4071" height="69.6106" fill="#EC856F"/>
<g filter="url(#filter1_d_106_139)">
<rect width="111.133" height="138" transform="matrix(1 0 0 -1 94 226.999)" fill="white"/>
</g>
<path d="M191.558 203.185H107.575C106.243 203.183 104.965 202.465 104.023 201.189C103.08 199.913 102.55 198.183 102.549 196.378V108.628C102.55 106.824 103.08 105.094 104.023 103.818C104.965 102.542 106.243 101.824 107.575 101.822H191.558C192.89 101.824 194.168 102.542 195.11 103.818C196.053 105.094 196.583 106.824 196.584 108.628V196.378C196.583 198.183 196.053 199.913 195.11 201.189C194.168 202.465 192.89 203.183 191.558 203.185Z" fill="#E6E7F1"/>
<path d="M191.756 203.185H107.377C105.935 203.183 104.552 202.413 103.533 201.045C102.513 199.676 101.94 197.821 101.938 195.886V108.51C101.94 106.575 102.513 104.72 103.533 103.352C104.552 101.983 105.935 101.214 107.377 101.211H191.756C193.198 101.214 194.58 101.983 195.6 103.352C196.62 104.72 197.193 106.575 197.195 108.51V195.886C197.193 197.821 196.62 199.676 195.6 201.045C194.58 202.413 193.198 203.183 191.756 203.185ZM107.377 102.463C106.182 102.464 105.037 103.102 104.192 104.236C103.347 105.37 102.872 106.907 102.87 108.51V195.886C102.872 197.49 103.347 199.027 104.192 200.16C105.037 201.294 106.182 201.932 107.377 201.934H191.756C192.951 201.932 194.096 201.294 194.941 200.16C195.786 199.027 196.261 197.49 196.262 195.886V108.51C196.261 106.907 195.786 105.37 194.941 104.236C194.096 103.102 192.951 102.464 191.756 102.463H107.377Z" fill="#E6E6E6"/>
<path d="M183.838 194H115.162C114.484 194.001 113.813 193.775 113.186 193.335C112.559 192.895 111.99 192.249 111.511 191.435C111.031 190.621 110.651 189.654 110.392 188.59C110.133 187.526 109.999 186.386 110 185.234V118.766C110.002 116.442 110.546 114.214 111.514 112.57C112.482 110.927 113.794 110.003 115.162 110H183.838C185.206 110.003 186.518 110.927 187.486 112.57C188.454 114.214 188.998 116.442 189 118.766V185.234C189.001 186.386 188.868 187.526 188.609 188.59C188.349 189.655 187.969 190.621 187.49 191.436C187.01 192.25 186.441 192.895 185.814 193.335C185.187 193.775 184.516 194.001 183.838 194ZM115.162 110.531C113.877 110.534 112.644 111.402 111.735 112.946C110.826 114.489 110.314 116.582 110.313 118.766V185.234C110.312 186.316 110.437 187.387 110.681 188.387C110.924 189.386 111.281 190.294 111.732 191.059C112.182 191.824 112.717 192.431 113.306 192.844C113.894 193.257 114.525 193.47 115.162 193.469H183.838C184.475 193.47 185.106 193.258 185.694 192.845C186.283 192.431 186.818 191.825 187.268 191.06C187.719 190.295 188.076 189.387 188.32 188.387C188.563 187.388 188.688 186.316 188.687 185.234V118.766C188.686 116.582 188.174 114.489 187.265 112.946C186.356 111.402 185.123 110.534 183.838 110.531H115.162Z" fill="white"/>
<rect x="143.46" y="126.247" width="33.5841" height="58.6195" fill="#FBB563"/>
<rect x="120.257" y="118.309" width="46.4071" height="69.6106" fill="#FBB563"/>
<g filter="url(#filter2_d_106_139)">
<rect width="111.133" height="138" transform="matrix(1 0 0 -1 142 200.999)" fill="white"/>
</g>
<path d="M239.558 177.185H155.575C154.243 177.183 152.965 176.465 152.023 175.189C151.08 173.913 150.55 172.183 150.549 170.378V82.6283C150.55 80.8238 151.08 79.0938 152.023 77.8178C152.965 76.5418 154.243 75.824 155.575 75.822H239.558C240.89 75.824 242.168 76.5418 243.11 77.8178C244.053 79.0938 244.583 80.8238 244.584 82.6283V170.378C244.583 172.183 244.053 173.913 243.11 175.189C242.168 176.465 240.89 177.183 239.558 177.185Z" fill="#E6E7F1"/>
<path d="M239.756 177.185H155.377C153.935 177.183 152.552 176.413 151.533 175.045C150.513 173.676 149.94 171.821 149.938 169.886V82.5101C149.94 80.575 150.513 78.7198 151.533 77.3515C152.552 75.9832 153.935 75.2135 155.377 75.2114H239.756C241.198 75.2135 242.58 75.9832 243.6 77.3515C244.62 78.7198 245.193 80.575 245.195 82.5101V169.886C245.193 171.821 244.62 173.676 243.6 175.045C242.58 176.413 241.198 177.183 239.756 177.185ZM155.377 76.4626C154.182 76.4644 153.037 77.1021 152.192 78.2358C151.347 79.3696 150.872 80.9067 150.87 82.5101V169.886C150.872 171.489 151.347 173.027 152.192 174.16C153.037 175.294 154.182 175.932 155.377 175.934H239.756C240.951 175.932 242.096 175.294 242.941 174.16C243.786 173.027 244.261 171.489 244.262 169.886V82.5101C244.261 80.9067 243.786 79.3696 242.941 78.2358C242.096 77.1021 240.951 76.4644 239.756 76.4626H155.377Z" fill="#E6E6E6"/>
<path d="M231.838 169H163.162C162.484 169.001 161.813 168.772 161.186 168.327C160.56 167.882 159.99 167.228 159.511 166.404C159.031 165.581 158.651 164.602 158.392 163.526C158.133 162.449 157.999 161.295 158 160.13V92.8699C158.002 90.5182 158.546 88.2637 159.514 86.6009C160.482 84.938 161.794 84.0027 163.162 84H231.838C233.206 84.0027 234.519 84.938 235.486 86.6009C236.454 88.2637 236.998 90.5182 237 92.8699V160.13C237.001 161.295 236.868 162.449 236.609 163.526C236.35 164.603 235.969 165.581 235.49 166.405C235.01 167.229 234.441 167.882 233.814 168.328C233.187 168.773 232.516 169.001 231.838 169ZM163.162 84.5376C161.877 84.5401 160.644 85.4187 159.735 86.9808C158.826 88.5429 158.314 90.6608 158.313 92.8699V160.13C158.312 161.225 158.437 162.309 158.681 163.32C158.924 164.331 159.282 165.25 159.732 166.024C160.182 166.798 160.717 167.412 161.306 167.83C161.895 168.249 162.525 168.463 163.162 168.462H231.838C232.475 168.464 233.106 168.249 233.694 167.831C234.283 167.412 234.818 166.799 235.268 166.025C235.719 165.251 236.076 164.332 236.32 163.32C236.563 162.309 236.688 161.225 236.687 160.13V92.8699C236.686 90.6608 236.174 88.5429 235.265 86.9808C234.356 85.4187 233.123 84.5401 231.838 84.5376H163.162Z" fill="white"/>
<rect x="191.46" y="100.247" width="33.5841" height="58.6195" fill="#5AB2AC"/>
<rect x="168.257" y="92.3087" width="46.4071" height="69.6106" fill="#5AB2AC"/>
<g filter="url(#filter3_d_106_139)">
<rect width="111.133" height="138" transform="matrix(1 0 0 -1 183 226.999)" fill="white"/>
</g>
<path d="M280.558 203.185H196.575C195.243 203.183 193.965 202.465 193.023 201.189C192.08 199.913 191.55 198.183 191.549 196.378V108.628C191.55 106.824 192.08 105.094 193.023 103.818C193.965 102.542 195.243 101.824 196.575 101.822H280.558C281.89 101.824 283.168 102.542 284.11 103.818C285.053 105.094 285.583 106.824 285.584 108.628V196.378C285.583 198.183 285.053 199.913 284.11 201.189C283.168 202.465 281.89 203.183 280.558 203.185Z" fill="#E6E7F1"/>
<path d="M280.756 203.185H196.377C194.935 203.183 193.552 202.413 192.533 201.045C191.513 199.676 190.94 197.821 190.938 195.886V108.51C190.94 106.575 191.513 104.72 192.533 103.352C193.552 101.983 194.935 101.214 196.377 101.211H280.756C282.198 101.214 283.58 101.983 284.6 103.352C285.62 104.72 286.193 106.575 286.195 108.51V195.886C286.193 197.821 285.62 199.676 284.6 201.045C283.58 202.413 282.198 203.183 280.756 203.185ZM196.377 102.463C195.182 102.464 194.037 103.102 193.192 104.236C192.347 105.37 191.872 106.907 191.87 108.51V195.886C191.872 197.49 192.347 199.027 193.192 200.16C194.037 201.294 195.182 201.932 196.377 201.934H280.756C281.951 201.932 283.096 201.294 283.941 200.16C284.786 199.027 285.261 197.49 285.262 195.886V108.51C285.261 106.907 284.786 105.37 283.941 104.236C283.096 103.102 281.951 102.464 280.756 102.463H196.377Z" fill="#E6E6E6"/>
<path d="M272.838 194H204.162C203.484 194.001 202.813 193.775 202.186 193.335C201.56 192.895 200.99 192.249 200.511 191.435C200.031 190.621 199.651 189.654 199.392 188.59C199.133 187.526 198.999 186.386 199 185.234V118.766C199.002 116.442 199.546 114.214 200.514 112.57C201.482 110.927 202.794 110.003 204.162 110H272.838C274.206 110.003 275.518 110.927 276.486 112.57C277.454 114.214 277.998 116.442 278 118.766V185.234C278.001 186.386 277.868 187.526 277.609 188.59C277.349 189.655 276.969 190.621 276.49 191.436C276.01 192.25 275.441 192.895 274.814 193.335C274.187 193.775 273.516 194.001 272.838 194ZM204.162 110.531C202.877 110.534 201.644 111.402 200.735 112.946C199.826 114.489 199.314 116.582 199.313 118.766V185.234C199.312 186.316 199.437 187.387 199.681 188.387C199.924 189.386 200.281 190.294 200.732 191.059C201.182 191.824 201.717 192.431 202.306 192.844C202.894 193.257 203.525 193.47 204.162 193.469H272.838C273.475 193.47 274.106 193.258 274.694 192.845C275.283 192.431 275.818 191.825 276.268 191.06C276.719 190.295 277.076 189.387 277.32 188.387C277.563 187.388 277.688 186.316 277.687 185.234V118.766C277.686 116.582 277.174 114.489 276.265 112.946C275.356 111.402 274.123 110.534 272.838 110.531H204.162Z" fill="white"/>
<rect x="232.46" y="126.247" width="33.5841" height="58.6195" fill="#EC856F" fill-opacity="0.8"/>
<rect x="209.257" y="118.309" width="46.4071" height="69.6106" fill="#EC856F"/>
<g filter="url(#filter4_d_106_139)">
<rect width="111.133" height="138" transform="matrix(-4.37114e-08 1 1 4.37114e-08 130 170.999)" fill="white"/>
</g>
<path d="M143 268.975L143 185.025C143.002 183.693 143.795 182.415 145.205 181.473C146.615 180.531 148.527 180.002 150.521 180L247.479 180C249.473 180.002 251.385 180.531 252.795 181.473C254.205 182.415 254.998 183.693 255 185.025L255 268.975C254.998 270.307 254.205 271.585 252.795 272.527C251.385 273.469 249.473 273.998 247.479 274L150.521 274C148.527 273.998 146.615 273.469 145.205 272.527C143.795 271.585 143.002 270.307 143 268.975Z" fill="#E6E7F1"/>
<path d="M143 268.576L143 184.424C143.002 182.986 143.855 181.607 145.372 180.59C146.888 179.574 148.944 179.002 151.088 179L247.912 179C250.056 179.002 252.112 179.574 253.628 180.59C255.145 181.607 255.998 182.986 256 184.424L256 268.576C255.998 270.014 255.145 271.393 253.628 272.41C252.112 273.426 250.056 273.998 247.912 274L151.088 274C148.944 273.998 146.888 273.426 145.372 272.41C143.855 271.393 143.002 270.014 143 268.576ZM254.613 184.424C254.611 183.233 253.905 182.09 252.648 181.248C251.392 180.405 249.689 179.931 247.912 179.93L151.088 179.93C149.311 179.931 147.608 180.405 146.352 181.248C145.095 182.09 144.389 183.233 144.387 184.424L144.387 268.576C144.389 269.767 145.095 270.91 146.352 271.752C147.608 272.595 149.311 273.069 151.088 273.07L247.912 273.07C249.689 273.069 251.392 272.595 252.648 271.752C253.905 270.91 254.611 269.767 254.613 268.576L254.613 184.424Z" fill="#E6E6E6"/>
<path d="M154 260.838L154 192.162C153.999 191.484 154.249 190.813 154.736 190.186C155.224 189.559 155.939 188.99 156.84 188.511C157.741 188.031 158.812 187.651 159.99 187.392C161.167 187.132 162.43 186.999 163.705 187L237.295 187C239.868 187.002 242.335 187.546 244.154 188.514C245.974 189.482 246.997 190.794 247 192.162L247 260.838C246.997 262.206 245.974 263.518 244.154 264.486C242.335 265.454 239.868 265.998 237.295 266L163.705 266C162.43 266.001 161.167 265.868 159.989 265.609C158.811 265.349 157.741 264.969 156.839 264.49C155.938 264.01 155.223 263.441 154.736 262.814C154.249 262.187 153.999 261.516 154 260.838ZM246.412 192.162C246.409 190.877 245.448 189.644 243.739 188.735C242.03 187.826 239.712 187.314 237.295 187.313L163.705 187.313C162.507 187.312 161.321 187.437 160.215 187.681C159.108 187.924 158.103 188.281 157.256 188.732C156.409 189.182 155.738 189.717 155.28 190.306C154.822 190.894 154.587 191.525 154.588 192.162L154.588 260.838C154.587 261.475 154.822 262.106 155.279 262.694C155.737 263.283 156.408 263.818 157.255 264.268C158.102 264.719 159.108 265.076 160.214 265.32C161.321 265.563 162.507 265.688 163.705 265.687L237.295 265.687C239.712 265.686 242.03 265.174 243.739 264.265C245.448 263.356 246.409 262.123 246.412 260.838L246.412 192.162Z" fill="white"/>
<rect x="196.695" y="197.782" width="33.5841" height="58.6195" fill="#857B98" fill-opacity="0.8"/>
<rect x="174.491" y="190.844" width="46.4071" height="69.6106" fill="#857B98"/>
<defs>
<filter id="filter0_d_106_139" x="69.0001" y="154.999" width="119.133" height="146" filterUnits="userSpaceOnUse" color-interpolation-filters="sRGB">
<feFlood flood-opacity="0" result="BackgroundImageFix"/>
<feColorMatrix in="SourceAlpha" type="matrix" values="0 0 0 0 0 0 0 0 0 0 0 0 0 0 0 0 0 0 127 0" result="hardAlpha"/>
<feOffset dx="2" dy="2"/>
<feGaussianBlur stdDeviation="2"/>
<feComposite in2="hardAlpha" operator="out"/>
<feColorMatrix type="matrix" values="0 0 0 0 0 0 0 0 0 0 0 0 0 0 0 0 0 0 0.25 0"/>
<feBlend mode="normal" in2="BackgroundImageFix" result="effect1_dropShadow_106_139"/>
<feBlend mode="normal" in="SourceGraphic" in2="effect1_dropShadow_106_139" result="shape"/>
</filter>
<filter id="filter1_d_106_139" x="92" y="86.999" width="119.133" height="146" filterUnits="userSpaceOnUse" color-interpolation-filters="sRGB">
<feFlood flood-opacity="0" result="BackgroundImageFix"/>
<feColorMatrix in="SourceAlpha" type="matrix" values="0 0 0 0 0 0 0 0 0 0 0 0 0 0 0 0 0 0 127 0" result="hardAlpha"/>
<feOffset dx="2" dy="2"/>
<feGaussianBlur stdDeviation="2"/>
<feComposite in2="hardAlpha" operator="out"/>
<feColorMatrix type="matrix" values="0 0 0 0 0 0 0 0 0 0 0 0 0 0 0 0 0 0 0.25 0"/>
<feBlend mode="normal" in2="BackgroundImageFix" result="effect1_dropShadow_106_139"/>
<feBlend mode="normal" in="SourceGraphic" in2="effect1_dropShadow_106_139" result="shape"/>
</filter>
<filter id="filter2_d_106_139" x="140" y="60.999" width="119.133" height="146" filterUnits="userSpaceOnUse" color-interpolation-filters="sRGB">
<feFlood flood-opacity="0" result="BackgroundImageFix"/>
<feColorMatrix in="SourceAlpha" type="matrix" values="0 0 0 0 0 0 0 0 0 0 0 0 0 0 0 0 0 0 127 0" result="hardAlpha"/>
<feOffset dx="2" dy="2"/>
<feGaussianBlur stdDeviation="2"/>
<feComposite in2="hardAlpha" operator="out"/>
<feColorMatrix type="matrix" values="0 0 0 0 0 0 0 0 0 0 0 0 0 0 0 0 0 0 0.25 0"/>
<feBlend mode="normal" in2="BackgroundImageFix" result="effect1_dropShadow_106_139"/>
<feBlend mode="normal" in="SourceGraphic" in2="effect1_dropShadow_106_139" result="shape"/>
</filter>
<filter id="filter3_d_106_139" x="181" y="86.999" width="119.133" height="146" filterUnits="userSpaceOnUse" color-interpolation-filters="sRGB">
<feFlood flood-opacity="0" result="BackgroundImageFix"/>
<feColorMatrix in="SourceAlpha" type="matrix" values="0 0 0 0 0 0 0 0 0 0 0 0 0 0 0 0 0 0 127 0" result="hardAlpha"/>
<feOffset dx="2" dy="2"/>
<feGaussianBlur stdDeviation="2"/>
<feComposite in2="hardAlpha" operator="out"/>
<feColorMatrix type="matrix" values="0 0 0 0 0 0 0 0 0 0 0 0 0 0 0 0 0 0 0.25 0"/>
<feBlend mode="normal" in2="BackgroundImageFix" result="effect1_dropShadow_106_139"/>
<feBlend mode="normal" in="SourceGraphic" in2="effect1_dropShadow_106_139" result="shape"/>
</filter>
<filter id="filter4_d_106_139" x="128" y="168.999" width="146" height="119.133" filterUnits="userSpaceOnUse" color-interpolation-filters="sRGB">
<feFlood flood-opacity="0" result="BackgroundImageFix"/>
<feColorMatrix in="SourceAlpha" type="matrix" values="0 0 0 0 0 0 0 0 0 0 0 0 0 0 0 0 0 0 127 0" result="hardAlpha"/>
<feOffset dx="2" dy="2"/>
<feGaussianBlur stdDeviation="2"/>
<feComposite in2="hardAlpha" operator="out"/>
<feColorMatrix type="matrix" values="0 0 0 0 0 0 0 0 0 0 0 0 0 0 0 0 0 0 0.25 0"/>
<feBlend mode="normal" in2="BackgroundImageFix" result="effect1_dropShadow_106_139"/>
<feBlend mode="normal" in="SourceGraphic" in2="effect1_dropShadow_106_139" result="shape"/>
</filter>
</defs>
</svg>
